# xmcd
#
# Track frame offsets:
#	150
#	13990
#	27282
#	41722
#	56367
#	69287
#	83635
#	95952
#	110257
#	125125
#
# Disc length: 1838 seconds
#
# Revision: 0
# Processed by: cddbd v1.5.2PL0 Copyright (c) Steve Scherf et al.
# Submitted via: EasyCDDAExtractor 16.0.1.1
#
DISCID=84072c0a
DTITLE=Billy Don Burns - Long Lost Highway
DYEAR=1994
DGENRE=Country
TTITLE0=That's All Right
TTITLE1=Old Country Song
TTITLE2=Long Lost Highway
TTITLE3=Dawn
TTITLE4=It Ain't Easy
TTITLE5=Hobbs  New Mexico
TTITLE6=Dreamers Like Me
TTITLE7=A Travelin' Musician And A Woman Who Flies
TTITLE8=Broken Heart Blvd_
TTITLE9=Haggard And Hank (Are Both A Son Of A Bitch)
EXTD=
EXTT0=
EXTT1=
EXTT2=
EXTT3=
EXTT4=
EXTT5=
EXTT6=
EXTT7=
EXTT8=
EXTT9=
PLAYORDER=
